<?xml version="1.0" encoding="UTF-8" standalone="no"?><!DOCTYPE svg PUBLIC "-//W3C//DTD SVG 1.1//EN" "http://www.w3.org/Graphics/SVG/1.1/DTD/svg11.dtd"><svg width="285" height="30" viewBox="0 0 285 30" version="1.1" xmlns="http://www.w3.org/2000/svg" xmlns:xlink="http://www.w3.org/1999/xlink" xml:space="preserve" xmlns:serif="http://www.serif.com/" style="fill-rule:evenodd;clip-rule:evenodd;stroke-linejoin:round;stroke-miterlimit:2;"><g><g><path id="Path-0" serif:id="Path 0" d="M20.361,2.862c8.022,-0 8.509,0.012 8.505,0.219c-0.003,0.12 -0.531,1.176 -2.346,4.473l-12.319,0l-1.171,-2.127c-0.644,-1.17 -1.172,-2.226 -1.175,-2.346c-0.004,-0.207 0.483,-0.219 8.506,-0.219Zm-12.106,0.187l2.996,5.068c1.646,2.788 3.023,5.125 3.059,5.194c0.035,0.068 -0.46,1.076 -1.104,2.237c-0.641,1.162 -1.195,2.131 -1.23,2.155c-0.035,0.024 -0.155,-0.026 -0.267,-0.11c-0.114,-0.084 -2.07,-3.32 -4.349,-7.192c-2.279,-3.872 -4.142,-7.124 -4.141,-7.229c0.003,-0.165 0.337,-0.186 5.036,-0.123Zm16.36,7.446l-0.037,0.282c-0.022,0.155 -1.805,3.406 -3.962,7.226c-2.158,3.821 -4.013,7.045 -4.123,7.168c-0.109,0.123 -0.256,0.22 -0.325,0.216c-0.068,-0.003 -0.645,-0.921 -1.281,-2.037c-0.637,-1.117 -1.157,-2.101 -1.157,-2.187c-0.002,-0.087 1.298,-2.452 2.888,-5.256c1.589,-2.804 2.982,-5.169 3.094,-5.256c0.147,-0.112 0.866,-0.156 4.903,-0.156Z" style="fill:#3054bc;fill-rule:nonzero;"/></g><g><path d="M34.23,5.187l4.107,-0l4.21,12.476l4.236,-12.476l4.107,-0l-6.147,18.081l-4.366,0l-6.147,-18.081Z" style="fill:#3054bc;fill-rule:nonzero;"/><path d="M54.61,7.589c-0.534,-0 -0.986,-0.185 -1.356,-0.555c-0.37,-0.371 -0.555,-0.823 -0.555,-1.357c-0,-0.533 0.185,-0.985 0.555,-1.356c0.37,-0.37 0.822,-0.555 1.356,-0.555c0.517,0 0.96,0.185 1.33,0.555c0.371,0.371 0.556,0.823 0.556,1.356c-0,0.534 -0.185,0.986 -0.556,1.357c-0.37,0.37 -0.813,0.555 -1.33,0.555Zm-1.886,2.764l3.668,-0l0,12.915l-3.668,0l0,-12.915Z" style="fill:#3054bc;fill-rule:nonzero;"/><path d="M72.072,23.268l-3.668,0l-0,-0.981c-0.413,0.413 -0.891,0.74 -1.434,0.981c-0.542,0.241 -1.175,0.362 -1.898,0.362c-1.016,-0 -1.929,-0.172 -2.738,-0.517c-0.81,-0.344 -1.499,-0.818 -2.067,-1.42c-0.568,-0.603 -1.003,-1.318 -1.304,-2.144c-0.302,-0.827 -0.452,-1.731 -0.452,-2.713c-0,-0.981 0.15,-1.89 0.452,-2.725c0.301,-0.835 0.736,-1.558 1.304,-2.17c0.568,-0.611 1.257,-1.089 2.067,-1.433c0.809,-0.345 1.722,-0.517 2.738,-0.517c0.723,0 1.356,0.125 1.898,0.375c0.543,0.249 1.021,0.581 1.434,0.994l-0,-6.173l3.668,-0l-0,18.081Zm-6.923,-3.048c0.964,0 1.748,-0.323 2.351,-0.968c0.602,-0.646 0.904,-1.468 0.904,-2.467c-0,-0.982 -0.302,-1.778 -0.904,-2.39c-0.603,-0.611 -1.387,-0.917 -2.351,-0.917c-0.448,0 -0.857,0.091 -1.227,0.272c-0.37,0.18 -0.689,0.422 -0.956,0.723c-0.267,0.301 -0.473,0.654 -0.62,1.059c-0.146,0.405 -0.219,0.839 -0.219,1.304c-0,0.465 0.073,0.905 0.219,1.318c0.147,0.413 0.353,0.77 0.62,1.072c0.267,0.301 0.586,0.542 0.956,0.723c0.37,0.181 0.779,0.271 1.227,0.271Z" style="fill:#3054bc;fill-rule:nonzero;"/><path d="M74.293,10.353l3.668,-0l0,7.723c0,0.448 0.073,0.818 0.22,1.111c0.146,0.293 0.331,0.53 0.555,0.71c0.224,0.181 0.478,0.31 0.762,0.388c0.284,0.077 0.556,0.116 0.814,0.116c0.275,0 0.547,-0.047 0.813,-0.142c0.267,-0.095 0.504,-0.254 0.711,-0.478c0.206,-0.224 0.374,-0.512 0.504,-0.865c0.129,-0.353 0.193,-0.797 0.193,-1.33l0,-7.233l3.668,-0l0,12.915l-3.668,0l0,-0.904c-0.413,0.362 -0.887,0.663 -1.42,0.904c-0.534,0.241 -1.103,0.362 -1.705,0.362c-0.465,-0 -0.995,-0.078 -1.589,-0.233c-0.594,-0.155 -1.149,-0.434 -1.666,-0.839c-0.517,-0.405 -0.956,-0.969 -1.317,-1.692c-0.362,-0.723 -0.543,-1.653 -0.543,-2.79l0,-7.723Z" style="fill:#3054bc;fill-rule:nonzero;"/><path d="M93.899,23.268c-0.345,0.052 -0.685,0.095 -1.02,0.129c-0.336,0.035 -0.651,0.052 -0.943,0.052c-0.517,0 -0.982,-0.06 -1.395,-0.181c-0.413,-0.12 -0.771,-0.335 -1.072,-0.645c-0.301,-0.31 -0.53,-0.724 -0.685,-1.24c-0.155,-0.517 -0.232,-1.171 -0.232,-1.963l-0,-14.233l3.694,-0l-0,14c-0,0.396 0.125,0.633 0.374,0.71c0.25,0.078 0.676,0.074 1.279,-0.013l-0,3.384Z" style="fill:#3054bc;fill-rule:nonzero;"/><path d="M96.275,10.353l3.668,-0l0,7.723c0,0.448 0.073,0.818 0.22,1.111c0.146,0.293 0.331,0.53 0.555,0.71c0.224,0.181 0.478,0.31 0.762,0.388c0.284,0.077 0.556,0.116 0.814,0.116c0.275,0 0.547,-0.047 0.814,-0.142c0.266,-0.095 0.503,-0.254 0.71,-0.478c0.207,-0.224 0.374,-0.512 0.504,-0.865c0.129,-0.353 0.193,-0.797 0.193,-1.33l0,-7.233l3.668,-0l0,12.915l-3.668,0l0,-0.904c-0.413,0.362 -0.887,0.663 -1.42,0.904c-0.534,0.241 -1.102,0.362 -1.705,0.362c-0.465,-0 -0.995,-0.078 -1.589,-0.233c-0.594,-0.155 -1.149,-0.434 -1.666,-0.839c-0.516,-0.405 -0.956,-0.969 -1.317,-1.692c-0.362,-0.723 -0.543,-1.653 -0.543,-2.79l0,-7.723Z" style="fill:#3054bc;fill-rule:nonzero;"/><path d="M130.475,23.268l-3.668,0l0,-7.723c0,-0.448 -0.073,-0.822 -0.219,-1.124c-0.147,-0.301 -0.332,-0.542 -0.556,-0.723c-0.223,-0.181 -0.473,-0.306 -0.749,-0.375c-0.275,-0.068 -0.551,-0.103 -0.826,-0.103c-0.276,0 -0.543,0.047 -0.801,0.142c-0.258,0.095 -0.486,0.25 -0.685,0.465c-0.198,0.215 -0.357,0.504 -0.477,0.865c-0.121,0.362 -0.181,0.81 -0.181,1.344l-0,7.232l-3.694,0l-0,-7.723c-0,-0.448 -0.073,-0.822 -0.22,-1.124c-0.146,-0.301 -0.331,-0.542 -0.555,-0.723c-0.224,-0.181 -0.474,-0.306 -0.749,-0.375c-0.276,-0.068 -0.551,-0.103 -0.827,-0.103c-0.275,0 -0.542,0.047 -0.8,0.142c-0.259,0.095 -0.487,0.25 -0.685,0.465c-0.198,0.215 -0.357,0.504 -0.478,0.865c-0.12,0.362 -0.181,0.81 -0.181,1.344l0,7.232l-3.693,0l-0,-12.915l3.693,-0l0,0.852c0.396,-0.344 0.857,-0.633 1.382,-0.865c0.526,-0.233 1.09,-0.349 1.692,-0.349c0.31,0 0.655,0.035 1.034,0.104c0.378,0.068 0.762,0.185 1.149,0.348c0.387,0.164 0.758,0.383 1.111,0.659c0.353,0.276 0.667,0.629 0.943,1.059c0.413,-0.568 0.955,-1.072 1.627,-1.511c0.671,-0.439 1.438,-0.659 2.299,-0.659c0.465,0 0.994,0.078 1.588,0.233c0.595,0.155 1.15,0.435 1.667,0.839c0.516,0.405 0.955,0.969 1.317,1.692c0.362,0.723 0.542,1.653 0.542,2.79l0,7.723Z" style="fill:#3054bc;fill-rule:nonzero;"/></g></g><g><path d="M205.37,10.371l3.278,-0c2.64,-0 4.462,1.815 4.462,4.177l0,0.023c0,2.362 -1.822,4.2 -4.462,4.2l-3.278,-0l0,-8.4Zm3.278,6.735c1.515,-0 2.535,-1.02 2.535,-2.513l-0,-0.022c-0,-1.485 -1.02,-2.535 -2.535,-2.535l-1.433,-0l0,5.062l1.433,0l-0,0.008Z" style="fill:#898a8d;fill-rule:nonzero;"/><path d="M214.835,14.593l0,-0.023c0,-2.392 1.883,-4.342 4.478,-4.342c2.595,-0 4.455,1.935 4.455,4.32l-0,0.022c-0,2.393 -1.883,4.343 -4.478,4.343c-2.595,-0 -4.455,-1.928 -4.455,-4.32Zm6.998,-0l-0,-0.023c-0,-1.44 -1.058,-2.64 -2.543,-2.64c-1.485,0 -2.52,1.178 -2.52,2.618l0,0.022c0,1.44 1.058,2.64 2.543,2.64c1.485,0 2.52,-1.177 2.52,-2.617Z" style="fill:#898a8d;fill-rule:nonzero;"/><path d="M226.235,14.593l0,-0.023c0,-2.392 1.8,-4.342 4.38,-4.342c1.583,-0 2.535,0.525 3.315,1.297l-1.177,1.358c-0.645,-0.585 -1.313,-0.945 -2.153,-0.945c-1.417,-0 -2.437,1.177 -2.437,2.617l-0,0.023c-0,1.44 0.997,2.64 2.437,2.64c0.96,-0 1.553,-0.383 2.213,-0.983l1.177,1.185c-0.862,0.923 -1.822,1.5 -3.442,1.5c-2.475,-0.007 -4.313,-1.912 -4.313,-4.327Z" style="fill:#898a8d;fill-rule:nonzero;"/><path d="M236.083,17.548l1.095,-1.305c0.757,0.623 1.545,1.02 2.505,1.02c0.757,0 1.215,-0.3 1.215,-0.795l-0,-0.022c-0,-0.465 -0.285,-0.705 -1.695,-1.065c-1.695,-0.435 -2.783,-0.9 -2.783,-2.573l0,-0.022c0,-1.523 1.223,-2.535 2.94,-2.535c1.223,-0 2.273,0.382 3.12,1.065l-0.96,1.395c-0.742,-0.518 -1.477,-0.825 -2.182,-0.825c-0.705,-0 -1.08,0.322 -1.08,0.735l-0,0.022c-0,0.555 0.36,0.735 1.815,1.103c1.702,0.442 2.662,1.057 2.662,2.52l0,0.022c0,1.673 -1.275,2.603 -3.082,2.603c-1.275,-0 -2.558,-0.443 -3.57,-1.343Z" style="fill:#898a8d;fill-rule:nonzero;"/><path d="M157.4,18.913c-2.475,0 -4.312,-1.912 -4.312,-4.327l-0,-0.023c-0,-2.392 1.8,-4.35 4.387,-4.35c1.583,0 2.535,0.533 3.315,1.298l-1.177,1.357c-0.653,-0.592 -1.313,-0.952 -2.153,-0.952c-1.417,-0 -2.437,1.177 -2.437,2.617l-0,0.023c-0,1.44 0.997,2.64 2.437,2.64c0.96,-0 1.553,-0.383 2.213,-0.983l1.177,1.193c-0.87,0.93 -1.83,1.507 -3.45,1.507Z" style="fill:#898a8d;"/><path d="M168.793,18.771l-0,-3.375l-3.413,-0l0,3.375l-1.845,-0l0,-8.408l1.845,0l0,3.323l3.413,-0l-0,-3.323l1.852,0l0,8.408l-1.852,-0Z" style="fill:#898a8d;"/><path d="M177.23,12.523l-1.117,2.73l2.235,0l-1.118,-2.73Zm0.878,-2.22l3.607,8.468l-1.935,-0l-0.772,-1.883l-3.555,0l-0.773,1.883l-1.882,-0l3.607,-8.468l1.703,0Z" style="fill:#898a8d;"/><rect x="184.138" y="10.363" width="1.852" height="8.408" style="fill:#898a8d;fill-rule:nonzero;"/><path d="M195.523,18.771l-4.08,-5.348l-0,5.348l-1.823,-0l0,-8.408l1.703,0l3.945,5.175l-0,-5.175l1.822,0l0,8.408l-1.567,-0Z" style="fill:#898a8d;fill-rule:nonzero;"/><path d="M157.4,18.913c-2.475,0 -4.312,-1.912 -4.312,-4.327l-0,-0.023c-0,-2.392 1.8,-4.35 4.387,-4.35c1.583,0 2.535,0.533 3.315,1.298l-1.177,1.357c-0.653,-0.592 -1.313,-0.952 -2.153,-0.952c-1.417,-0 -2.437,1.177 -2.437,2.617l-0,0.023c-0,1.44 0.997,2.64 2.437,2.64c0.96,-0 1.553,-0.383 2.213,-0.983l1.177,1.193c-0.87,0.93 -1.83,1.507 -3.45,1.507Z" style="fill:#898a8d;"/><path d="M168.793,18.771l-0,-3.375l-3.413,-0l0,3.375l-1.845,-0l0,-8.408l1.845,0l0,3.323l3.413,-0l-0,-3.323l1.852,0l0,8.408l-1.852,-0Z" style="fill:#898a8d;"/><path d="M177.23,12.523l-1.117,2.73l2.235,0l-1.118,-2.73Zm0.878,-2.22l3.607,8.468l-1.935,-0l-0.772,-1.883l-3.555,0l-0.773,1.883l-1.882,-0l3.607,-8.468l1.703,0Z" style="fill:#898a8d;"/><rect x="142.475" y="3.711" width="0.39" height="20.828" style="fill:#898a8d;fill-rule:nonzero;"/></g></svg>