<?xml version="1.0" encoding="UTF-8" standalone="no"?><!DOCTYPE svg PUBLIC "-//W3C//DTD SVG 1.1//EN" "http://www.w3.org/Graphics/SVG/1.1/DTD/svg11.dtd"><svg width="1376" height="388" viewBox="0 0 1376 388" version="1.1" xmlns="http://www.w3.org/2000/svg" xmlns:xlink="http://www.w3.org/1999/xlink" xml:space="preserve" xmlns:serif="http://www.serif.com/" style="fill-rule:evenodd;clip-rule:evenodd;stroke-linejoin:round;stroke-miterlimit:2;"><g><path id="prefix__a" d="M1376,8c0,-4.415 -3.585,-8 -8,-8l-1360,0c-4.415,0 -8,3.585 -8,8l0,372c0,4.415 3.585,8 8,8l1360,0c4.415,0 8,-3.585 8,-8l0,-372Z" style="fill:#0f1c39;"/></g><g opacity="0.09"><path id="Path-0" serif:id="Path 0" d="M205.669,-45.865c134.445,-0 142.602,0.21 142.539,3.67c-0.041,2.013 -8.891,19.712 -39.32,74.971l-206.437,-0l-19.629,-35.651c-10.8,-19.608 -19.65,-37.307 -19.692,-39.32c-0.063,-3.46 8.095,-3.67 142.539,-3.67Zm-202.872,3.146l50.204,84.932c27.598,46.723 50.666,85.875 51.274,87.029c0.587,1.153 -7.717,18.035 -18.496,37.496c-10.758,19.482 -20.027,35.713 -20.614,36.112c-0.588,0.398 -2.601,-0.441 -4.488,-1.846c-1.909,-1.405 -34.686,-55.636 -72.874,-120.52c-38.188,-64.883 -69.414,-119.387 -69.393,-121.148c0.042,-2.768 5.642,-3.125 84.387,-2.055Zm274.173,124.776l-0.629,4.719c-0.356,2.6 -30.24,57.082 -66.393,121.107c-36.154,64.024 -67.254,118.066 -69.1,120.121c-1.824,2.055 -4.278,3.691 -5.431,3.628c-1.153,-0.063 -10.821,-15.435 -21.474,-34.141c-10.674,-18.727 -19.398,-35.21 -19.398,-36.657c-0.021,-1.447 21.768,-41.082 48.401,-88.078c26.633,-46.995 49.973,-86.63 51.861,-88.077c2.453,-1.888 14.511,-2.622 82.163,-2.622Z" style="fill:#fff;fill-rule:nonzero;"/></g></svg>