<?xml version="1.0" encoding="UTF-8" standalone="no"?><!DOCTYPE svg PUBLIC "-//W3C//DTD SVG 1.1//EN" "http://www.w3.org/Graphics/SVG/1.1/DTD/svg11.dtd"><svg width="383" height="287" viewBox="0 0 383 287" version="1.1" xmlns="http://www.w3.org/2000/svg" xmlns:xlink="http://www.w3.org/1999/xlink" xml:space="preserve" xmlns:serif="http://www.serif.com/" style="fill-rule:evenodd;clip-rule:evenodd;stroke-linejoin:round;stroke-miterlimit:2;"><path d="M383,37c0,-4.415 -3.585,-8 -8,-8l-332,0c-4.415,0 -8,3.585 -8,8l0,241.157c0,4.415 3.585,8 8,8l332,-0c4.415,-0 8,-3.585 8,-8l0,-241.157Z" style="fill:#ebebeb;"/><g><path d="M361,17c0,-4.415 -3.585,-8 -8,-8l-332,0c-4.415,0 -8,3.585 -8,8l0,241.157c0,4.415 3.585,8 8,8l332,-0c4.415,-0 8,-3.585 8,-8l0,-241.157Z" style="fill:#fff;"/></g><path d="M13,20.181c0,-6.175 5.006,-11.181 11.181,-11.181l325.638,0c6.175,0 11.181,5.006 11.181,11.181l0,14.819l-348,0l0,-14.819Z" style="fill:#b9b9b9;fill-rule:nonzero;"/><path d="M330,66c0,-4.415 -3.585,-8 -8,-8l-270,0c-4.415,0 -8,3.585 -8,8l0,64c0,4.415 3.585,8 8,8l270,0c4.415,0 8,-3.585 8,-8l0,-64Z" style="fill:#d8d8d8;fill-opacity:0.2;"/><path d="M329,166c0,-4.415 -3.585,-8 -8,-8l-104,0c-4.415,0 -8,3.585 -8,8l0,73c0,4.415 3.585,8 8,8l104,0c4.415,0 8,-3.585 8,-8l0,-73Z" style="fill:#d8d8d8;fill-opacity:0.2;"/><path d="M174,177.5c0,-1.932 -1.568,-3.5 -3.5,-3.5l-113,0c-1.932,0 -3.5,1.568 -3.5,3.5c0,1.932 1.568,3.5 3.5,3.5l113,0c1.932,0 3.5,-1.568 3.5,-3.5Z" style="fill:#d8d8d8;fill-opacity:0.2;"/><path d="M174,194.5c0,-1.932 -1.568,-3.5 -3.5,-3.5l-113,0c-1.932,0 -3.5,1.568 -3.5,3.5c0,1.932 1.568,3.5 3.5,3.5l113,0c1.932,0 3.5,-1.568 3.5,-3.5Z" style="fill:#d8d8d8;fill-opacity:0.2;"/><path d="M174,211.5c0,-1.932 -1.568,-3.5 -3.5,-3.5l-113,0c-1.932,0 -3.5,1.568 -3.5,3.5c0,1.932 1.568,3.5 3.5,3.5l113,0c1.932,0 3.5,-1.568 3.5,-3.5Z" style="fill:#d8d8d8;fill-opacity:0.2;"/><path d="M174,228.5c0,-1.932 -1.568,-3.5 -3.5,-3.5l-113,0c-1.932,0 -3.5,1.568 -3.5,3.5c0,1.932 1.568,3.5 3.5,3.5l113,0c1.932,0 3.5,-1.568 3.5,-3.5Z" style="fill:#d8d8d8;fill-opacity:0.2;"/><circle cx="29.5" cy="22.5" r="5.5" style="fill:#e64b60;"/><circle cx="48.5" cy="22.5" r="5.5" style="fill:#ffbf00;"/><circle cx="67.5" cy="22.5" r="5.5" style="fill:#20bca4;"/><path id="Path-0" serif:id="Path 0" d="M199.457,81.178c14.785,-0 15.682,0.023 15.675,0.404c-0.004,0.221 -0.978,2.167 -4.324,8.244l-22.702,-0l-2.158,-3.92c-1.188,-2.157 -2.161,-4.103 -2.166,-4.324c-0.006,-0.381 0.891,-0.404 15.675,-0.404Zm-22.309,0.346l5.521,9.34c3.034,5.138 5.571,9.443 5.638,9.57c0.065,0.127 -0.849,1.984 -2.034,4.124c-1.183,2.142 -2.202,3.927 -2.267,3.971c-0.064,0.044 -0.286,-0.049 -0.493,-0.203c-0.21,-0.155 -3.815,-6.118 -8.014,-13.254c-4.2,-7.135 -7.634,-13.128 -7.631,-13.322c0.004,-0.305 0.62,-0.344 9.28,-0.226Zm30.15,13.721l-0.069,0.519c-0.039,0.286 -3.325,6.278 -7.301,13.318c-3.976,7.041 -7.396,12.984 -7.599,13.21c-0.201,0.226 -0.47,0.406 -0.597,0.399c-0.127,-0.007 -1.19,-1.697 -2.362,-3.755c-1.174,-2.059 -2.133,-3.872 -2.133,-4.031c-0.002,-0.159 2.394,-4.517 5.323,-9.685c2.928,-5.169 5.495,-9.527 5.703,-9.686c0.27,-0.208 1.596,-0.289 9.035,-0.289Z" style="fill:#3054bc;fill-rule:nonzero;"/></svg>