<?xml version="1.0" encoding="UTF-8" standalone="no"?><!DOCTYPE svg PUBLIC "-//W3C//DTD SVG 1.1//EN" "http://www.w3.org/Graphics/SVG/1.1/DTD/svg11.dtd"><svg width="160" height="32" viewBox="0 0 219 44.6" version="1.1" xmlns="http://www.w3.org/2000/svg" xmlns:xlink="http://www.w3.org/1999/xlink" xml:space="preserve" xmlns:serif="http://www.serif.com/" style="fill-rule:evenodd;clip-rule:evenodd;stroke-linejoin:round;stroke-miterlimit:2;"><g><path id="Path-0" serif:id="Path 0" d="M31.852,0c14.908,0 15.813,0.023 15.806,0.407c-0.005,0.223 -0.986,2.186 -4.36,8.313l-22.891,-0l-2.176,-3.953c-1.198,-2.174 -2.179,-4.137 -2.184,-4.36c-0.007,-0.384 0.898,-0.407 15.805,-0.407Zm-22.495,0.349l5.567,9.417c3.06,5.181 5.618,9.523 5.685,9.65c0.065,0.128 -0.855,2 -2.051,4.158c-1.192,2.16 -2.22,3.96 -2.285,4.004c-0.065,0.045 -0.289,-0.048 -0.498,-0.204c-0.212,-0.156 -3.846,-6.169 -8.08,-13.364c-4.235,-7.194 -7.697,-13.238 -7.695,-13.433c0.005,-0.307 0.626,-0.347 9.357,-0.228Zm30.401,13.835l-0.069,0.524c-0.04,0.288 -3.353,6.329 -7.362,13.428c-4.009,7.1 -7.458,13.092 -7.662,13.32c-0.203,0.228 -0.475,0.409 -0.603,0.402c-0.127,-0.007 -1.199,-1.711 -2.381,-3.785c-1.183,-2.077 -2.151,-3.905 -2.151,-4.065c-0.002,-0.161 2.414,-4.555 5.367,-9.766c2.953,-5.212 5.542,-9.606 5.751,-9.767c0.272,-0.209 1.609,-0.291 9.11,-0.291Z" style="fill:#fff;fill-rule:nonzero;"/></g><g><path d="M57.624,4.32l7.632,0l7.824,23.184l7.872,-23.184l7.632,0l-11.424,33.6l-8.112,0l-11.424,-33.6Z" style="fill:#fff;fill-rule:nonzero;"/><path d="M95.496,8.784c-0.992,0 -1.832,-0.344 -2.52,-1.032c-0.688,-0.688 -1.032,-1.528 -1.032,-2.52c0,-0.992 0.344,-1.832 1.032,-2.52c0.688,-0.688 1.528,-1.032 2.52,-1.032c0.96,0 1.784,0.344 2.472,1.032c0.688,0.688 1.032,1.528 1.032,2.52c0,0.992 -0.344,1.832 -1.032,2.52c-0.688,0.688 -1.512,1.032 -2.472,1.032Zm-3.504,5.136l6.816,0l0,24l-6.816,0l0,-24Z" style="fill:#fff;fill-rule:nonzero;"/><path d="M127.944,37.92l-6.816,0l0,-1.824c-0.768,0.768 -1.656,1.376 -2.664,1.824c-1.008,0.448 -2.184,0.672 -3.528,0.672c-1.888,0 -3.584,-0.32 -5.088,-0.96c-1.504,-0.64 -2.784,-1.52 -3.84,-2.64c-1.056,-1.12 -1.864,-2.448 -2.424,-3.984c-0.56,-1.536 -0.84,-3.216 -0.84,-5.04c0,-1.824 0.28,-3.512 0.84,-5.064c0.56,-1.552 1.368,-2.896 2.424,-4.032c1.056,-1.136 2.336,-2.024 3.84,-2.664c1.504,-0.64 3.2,-0.96 5.088,-0.96c1.344,0 2.52,0.232 3.528,0.696c1.008,0.464 1.896,1.08 2.664,1.848l0,-11.472l6.816,0l0,33.6Zm-12.864,-5.664c1.792,0 3.248,-0.6 4.368,-1.8c1.12,-1.2 1.68,-2.728 1.68,-4.584c0,-1.824 -0.56,-3.304 -1.68,-4.44c-1.12,-1.136 -2.576,-1.704 -4.368,-1.704c-0.832,0 -1.592,0.168 -2.28,0.504c-0.688,0.336 -1.28,0.784 -1.776,1.344c-0.496,0.56 -0.88,1.216 -1.152,1.968c-0.272,0.752 -0.408,1.56 -0.408,2.424c0,0.864 0.136,1.68 0.408,2.448c0.272,0.768 0.656,1.432 1.152,1.992c0.496,0.56 1.088,1.008 1.776,1.344c0.688,0.336 1.448,0.504 2.28,0.504Z" style="fill:#fff;fill-rule:nonzero;"/><path d="M132.072,13.92l6.816,0l0,14.352c0,0.832 0.136,1.52 0.408,2.064c0.272,0.544 0.616,0.984 1.032,1.32c0.416,0.336 0.888,0.576 1.416,0.72c0.528,0.144 1.032,0.216 1.512,0.216c0.512,0 1.016,-0.088 1.512,-0.264c0.496,-0.176 0.936,-0.472 1.32,-0.888c0.384,-0.416 0.696,-0.952 0.936,-1.608c0.24,-0.656 0.36,-1.48 0.36,-2.472l0,-13.44l6.816,0l0,24l-6.816,0l0,-1.68c-0.768,0.672 -1.648,1.232 -2.64,1.68c-0.992,0.448 -2.048,0.672 -3.168,0.672c-0.864,0 -1.848,-0.144 -2.952,-0.432c-1.104,-0.288 -2.136,-0.808 -3.096,-1.56c-0.96,-0.752 -1.776,-1.8 -2.448,-3.144c-0.672,-1.344 -1.008,-3.072 -1.008,-5.184l0,-14.352Z" style="fill:#fff;fill-rule:nonzero;"/><path d="M168.504,37.92c-0.64,0.096 -1.272,0.176 -1.896,0.24c-0.624,0.064 -1.208,0.096 -1.752,0.096c-0.96,0 -1.824,-0.112 -2.592,-0.336c-0.768,-0.224 -1.432,-0.624 -1.992,-1.2c-0.56,-0.576 -0.984,-1.344 -1.272,-2.304c-0.288,-0.96 -0.432,-2.176 -0.432,-3.648l0,-26.448l6.864,0l0,26.016c0,0.736 0.232,1.176 0.696,1.32c0.464,0.144 1.256,0.136 2.376,-0.024l0,6.288Z" style="fill:#fff;fill-rule:nonzero;"/><path d="M172.92,13.92l6.816,0l0,14.352c0,0.832 0.136,1.52 0.408,2.064c0.272,0.544 0.616,0.984 1.032,1.32c0.416,0.336 0.888,0.576 1.416,0.72c0.528,0.144 1.032,0.216 1.512,0.216c0.512,0 1.016,-0.088 1.512,-0.264c0.496,-0.176 0.936,-0.472 1.32,-0.888c0.384,-0.416 0.696,-0.952 0.936,-1.608c0.24,-0.656 0.36,-1.48 0.36,-2.472l0,-13.44l6.816,0l0,24l-6.816,0l0,-1.68c-0.768,0.672 -1.648,1.232 -2.64,1.68c-0.992,0.448 -2.048,0.672 -3.168,0.672c-0.864,0 -1.848,-0.144 -2.952,-0.432c-1.104,-0.288 -2.136,-0.808 -3.096,-1.56c-0.96,-0.752 -1.776,-1.8 -2.448,-3.144c-0.672,-1.344 -1.008,-3.072 -1.008,-5.184l0,-14.352Z" style="fill:#fff;fill-rule:nonzero;"/><path d="M236.472,37.92l-6.816,0l0,-14.352c0,-0.832 -0.136,-1.528 -0.408,-2.088c-0.272,-0.56 -0.616,-1.008 -1.032,-1.344c-0.416,-0.336 -0.88,-0.568 -1.392,-0.696c-0.512,-0.128 -1.024,-0.192 -1.536,-0.192c-0.512,0 -1.008,0.088 -1.488,0.264c-0.48,0.176 -0.904,0.464 -1.272,0.864c-0.368,0.4 -0.664,0.936 -0.888,1.608c-0.224,0.672 -0.336,1.504 -0.336,2.496l0,13.44l-6.864,0l0,-14.352c0,-0.832 -0.136,-1.528 -0.408,-2.088c-0.272,-0.56 -0.616,-1.008 -1.032,-1.344c-0.416,-0.336 -0.88,-0.568 -1.392,-0.696c-0.512,-0.128 -1.024,-0.192 -1.536,-0.192c-0.512,0 -1.008,0.088 -1.488,0.264c-0.48,0.176 -0.904,0.464 -1.272,0.864c-0.368,0.4 -0.664,0.936 -0.888,1.608c-0.224,0.672 -0.336,1.504 -0.336,2.496l0,13.44l-6.864,0l0,-24l6.864,0l0,1.584c0.736,-0.64 1.592,-1.176 2.568,-1.608c0.976,-0.432 2.024,-0.648 3.144,-0.648c0.576,0 1.216,0.064 1.92,0.192c0.704,0.128 1.416,0.344 2.136,0.648c0.72,0.304 1.408,0.712 2.064,1.224c0.656,0.512 1.24,1.168 1.752,1.968c0.768,-1.056 1.776,-1.992 3.024,-2.808c1.248,-0.816 2.672,-1.224 4.272,-1.224c0.864,0 1.848,0.144 2.952,0.432c1.104,0.288 2.136,0.808 3.096,1.56c0.96,0.752 1.776,1.8 2.448,3.144c0.672,1.344 1.008,3.072 1.008,5.184l0,14.352Z" style="fill:#fff;fill-rule:nonzero;"/></g></svg>